<svg width="24" height="24" viewBox="0 0 24 24" fill="none" xmlns="http://www.w3.org/2000/svg">
<circle cx="12" cy="12" r="12" fill="white"/>
<circle cx="12" cy="12" r="12" fill="url(#paint0_linear_2691_1555)"/>
<path fill-rule="evenodd" clip-rule="evenodd" d="M8.70174 7.24182C8.70174 7.80954 8.24078 8.26977 7.67216 8.26977C7.10354 8.26977 6.64258 7.80954 6.64258 7.24182C6.64258 6.6741 7.10354 6.21387 7.67216 6.21387C8.24078 6.21387 8.70174 6.6741 8.70174 7.24182ZM16.9487 6.38892C17.1099 6.45736 17.2527 6.56277 17.3654 6.69661C17.4592 6.84054 17.5176 7.0045 17.5361 7.1752C17.5545 7.34589 17.5325 7.51853 17.4716 7.67912C17.3698 8.0059 17.2375 8.32619 17.1096 8.63132L17.0164 8.84773C16.8899 9.16104 16.7626 9.46919 16.6338 9.7812C16.5419 10.0037 16.4492 10.2281 16.3553 10.4578C16.2612 10.6883 16.1656 10.9161 16.0703 11.143C15.9374 11.4595 15.8053 11.7741 15.6791 12.0917C15.4408 12.6608 15.2085 13.2286 14.976 13.797C14.8954 13.9939 14.8149 14.1908 14.734 14.3879C14.2494 15.5582 13.7683 16.725 13.2827 17.9029L13.1365 18.2573C13.0505 18.4929 12.8948 18.6969 12.69 18.8422C12.4852 18.9875 12.2411 19.0673 11.9899 19.071C11.7033 19.0643 11.4253 18.9716 11.1923 18.8048C11.069 18.7163 10.9723 18.5958 10.9126 18.4564C10.83 18.2632 10.7459 18.0676 10.661 17.8701C10.3359 17.1143 9.99858 16.3301 9.68581 15.5392L9.6648 15.4893C9.62026 15.3836 9.5769 15.2807 9.53192 15.1778C9.33546 14.716 8.80284 13.3631 8.5761 12.7871L8.53918 12.6934L8.52617 12.6544C8.47632 12.5224 8.41997 12.3947 8.36361 12.267C8.3488 12.231 8.33388 12.1949 8.31896 12.1589C8.24429 11.9785 8.16962 11.7982 8.11001 11.6178C7.88241 10.9188 8.23355 10.5617 8.45031 10.4146C8.6157 10.3015 8.81124 10.2404 9.0117 10.2393C9.17718 10.2408 9.33951 10.2846 9.48329 10.3664C9.62706 10.4482 9.74751 10.5654 9.8332 10.7067C9.86385 10.7517 9.89138 10.7987 9.91557 10.8474C10.0632 11.1188 10.1865 11.4027 10.2841 11.6957C10.3339 11.8234 10.3816 11.9554 10.4379 12.0831C10.5804 12.4212 10.8503 13.1112 11.0964 13.7401C11.2661 14.1737 11.4244 14.5783 11.5217 14.8185C11.68 15.1799 11.823 15.5457 11.9552 15.9157L12.2067 15.3184L12.948 13.5504C13.0142 13.3791 13.0887 13.2057 13.163 13.0332C13.1957 12.9572 13.2283 12.8813 13.2601 12.8059C13.2922 12.7287 13.3245 12.6513 13.3568 12.5739C13.6358 11.9043 13.9188 11.2254 14.1791 10.5466C14.4132 9.93845 14.669 9.32601 14.9161 8.73521L15.1155 8.25045C15.0365 8.23934 14.9568 8.235 14.8771 8.23747H12.8721H11.5261C11.1814 8.23313 10.6655 8.22448 10.4098 7.71591C10.3522 7.60235 10.3177 7.47853 10.3084 7.3516C10.299 7.22468 10.315 7.09715 10.3553 6.9764C10.3956 6.85565 10.4595 6.74409 10.5432 6.64814C10.627 6.55221 10.729 6.47379 10.8433 6.41744C11.0618 6.32654 11.2985 6.28728 11.5347 6.30275H16.4377C16.6125 6.29097 16.7875 6.32049 16.9487 6.38892Z" fill="white"/>
<defs>
<linearGradient id="paint0_linear_2691_1555" x1="12" y1="0" x2="12" y2="24" gradientUnits="userSpaceOnUse">
<stop stop-color="#4C57E2" stop-opacity="0.6"/>
<stop offset="0.885417" stop-color="#4C57E2"/>
</linearGradient>
</defs>
</svg>
